Coordinates
version=1
nRows=6
nColumns=63
inDegrees=yes

Units are S.I. units (second, meters, Newtons, ...)
If the header above contains a line with 'inDegrees', this indicates whether rotational values are in degrees (yes) or radians (no).

endheader
time	pelvis_tilt	pelvis_list	pelvis_rotation	pelvis_tx	pelvis_ty	pelvis_tz	hip_flexion_r	hip_adduction_r	hip_rotation_r	knee_angle_r	knee_angle_r_beta	ankle_angle_r	subtalar_angle_r	mtp_angle_r	hip_flexion_l	hip_adduction_l	hip_rotation_l	knee_angle_l	knee_angle_l_beta	ankle_angle_l	subtalar_angle_l	mtp_angle_l	L5_S1_Flex_Ext	L5_S1_Lat_Bending	L5_S1_axial_rotation	L4_L5_Flex_Ext	L4_L5_Lat_Bending	L4_L5_axial_rotation	L3_L4_Flex_Ext	L3_L4_Lat_Bending	L3_L4_axial_rotation	L2_L3_Flex_Ext	L2_L3_Lat_Bending	L2_L3_axial_rotation	L1_L2_Flex_Ext	L1_L2_Lat_Bending	L1_L2_axial_rotation	L1_T12_Flex_Ext	L1_T12_Lat_Bending	L1_T12_axial_rotation	Abs_r3	Abs_r2	Abs_r1	Abs_t1	Abs_t2	neck_flexion	neck_bending	neck_rotation	arm_flex_r	arm_add_r	arm_rot_r	elbow_flex_r	pro_sup_r	wrist_flex_r	wrist_dev_r	arm_flex_l	arm_add_l	arm_rot_l	elbow_flex_l	pro_sup_l	wrist_flex_l	wrist_dev_l
      3.30508475	      7.45735741	    -42.23916221	     92.67494171	      0.14800537	      0.35250692	      0.98584993	    103.00807168	      3.38153509	     -8.25280108	     89.09504472	      1.55500188	     55.65218719	     -0.62438155	      0.00000000	    107.11991355	    -21.07238589	    -12.56692901	     95.82624481	      1.67248348	     53.25577607	     11.86441495	      0.00000000	      0.18541412	     -1.22498439	     -1.65827113	      0.34433256	     -1.62922924	     -1.76191308	      0.30461686	     -2.97842705	     -1.76191308	      0.21190980	     -2.97842705	     -1.45098724	      0.17217555	     -2.49798817	     -1.34734529	      0.10594563	     -1.89750082	     -1.24370335	      1.32439452	    -13.85726844	     -9.22280654	      0.00000000	      0.00000000	     28.39416752	     -5.53167973	    -22.13076122	      5.84611700	    -40.39877901	     28.83815962	    107.48254105	     89.19042718	      2.62057522	     27.57209478	     52.87361406	    -27.88137380	    136.55344398	      0.22563419	      0.77062796	     -2.14353622	    -24.28605701
      3.32203390	      7.09635944	    -42.83986223	     92.66303529	      0.15064042	      0.34804176	      0.98524899	    104.42758650	      3.64148915	     -7.80206611	     89.79892102	      1.56728684	     56.56424358	     -0.37595269	      0.00000000	    107.93236155	    -21.70341116	    -13.06962858	     96.31193759	      1.68096042	     53.45887451	     13.10305563	      0.00000000	      0.21598536	     -1.27970858	     -1.28028055	      0.40110641	     -1.70201242	     -1.36029809	      0.35484234	     -3.11148345	     -1.36029809	      0.24684966	     -3.11148345	     -1.12024548	      0.20056400	     -2.60958174	     -1.04022795	      0.12341403	     -1.98226860	     -0.96021041	      1.54276181	    -14.47631944	     -7.12053635	      0.00000000	      0.00000000	     28.41373008	     -5.73968162	    -21.58181738	      1.92584330	    -35.69506916	     26.64348241	    106.85837660	     89.05877571	      4.87010948	     28.23703098	     53.83384903	    -26.29925753	    138.29152458	      0.21790161	      0.74190807	     -0.78135651	    -24.33095949
      3.33898305	      6.73597578	    -43.47101553	     92.67551972	      0.15247040	      0.34370565	      0.98400011	    105.62013942	      3.78947497	     -7.36806560	     90.47859108	      1.57914932	     57.31851666	     -0.18886446	      0.00000000	    108.68400040	    -22.06851329	    -13.29158241	     96.69653542	      1.68767292	     53.73277785	     14.78669540	      0.00000000	      0.24961316	     -1.31481887	     -0.87969147	      0.46355660	     -1.74870910	     -0.93467219	      0.41008946	     -3.19685060	     -0.93467219	      0.28528288	     -3.19685060	     -0.76973004	      0.23179078	     -2.68117864	     -0.71474932	      0.14262896	     -2.03665443	     -0.65976861	      1.78296186	    -14.87349402	     -4.89258008	      0.00000000	      0.00000000	     28.43127579	     -6.80426406	    -21.60071791	     -2.04977915	    -31.12918571	     24.16098366	    106.57318805	     89.00796427	      6.83446988	     28.14846307	     54.48966502	    -24.46204975	    140.23723002	      0.21307662	      0.73779891	     -0.80937161	    -24.37061309
      3.35593220	      6.38567612	    -44.09535277	     92.73123820	      0.15359040	      0.33972095	      0.98228219	    106.42199187	      3.76571674	     -7.06462407	     91.03996996	      1.58894723	     57.79050477	     -0.20507117	      0.00000000	    109.37512041	    -22.18370176	    -13.26541313	     96.99080449	      1.69280888	     54.10706289	     16.72766840	      0.00000000	      0.29495014	     -1.33536473	     -0.50471671	      0.54775191	     -1.77603509	     -0.53626150	      0.48457359	     -3.24680581	     -0.53626150	      0.33709852	     -3.24680581	     -0.44162712	      0.27389070	     -2.72307576	     -0.41008233	      0.16853451	     -2.06847997	     -0.37853753	      2.10679936	    -15.10591291	     -2.80708292	      0.00000000	      0.00000000	     28.44412759	     -8.20657764	    -21.74491466	     -5.22781654	    -27.11010932	     22.37899173	    106.27324992	     89.07278341	      9.30331289	     27.58660393	     54.71958835	    -22.65048279	    142.12531233	      0.21059679	      0.74141837	     -2.23509048	    -24.38961690
      3.37288136	      5.91322180	    -44.61896789	     92.74137744	      0.15351093	      0.33633720	      0.98049031	    106.84930918	      3.60384593	     -6.64488738	     91.55232201	      1.59788946	     57.93180277	     -0.38337068	      0.00000000	    109.82656534	    -21.86325790	    -13.14069310	     97.08369665	      1.69443016	     54.56886680	     18.28934671	      0.00000000	      0.34206458	     -1.35127102	     -0.17349014	      0.63524813	     -1.79719046	     -0.18433327	      0.56197790	     -3.28548036	     -0.18433327	      0.39094561	     -3.28548036	     -0.15180387	      0.31764117	     -2.75551187	     -0.14096074	      0.19545570	     -2.09311881	     -0.13011760	      2.44333309	    -15.28584805	     -0.96490009	      0.00000000	      0.00000000	     28.45403616	     -9.55997803	    -21.74895344	     -7.37015828	    -23.93763064	     21.52247012	    105.81379076	     89.18807833	     11.80166393	     26.65669513	     54.53484069	    -20.97977126	    143.71257150	      0.21026768	      0.78443784	     -4.43717001	    -24.40253085
      3.38983051	      4.99802156	    -44.72414769	     92.45119009	      0.15328699	      0.33534703	      0.97841480	    106.49764865	      3.48219242	     -5.92919581	     91.76386720	      1.60158162	     57.84760573	     -0.65101002	      0.00000000	    109.43460039	    -21.23848403	    -13.19563750	     96.78114860	      1.68914970	     55.09735667	     19.12748400	      0.00000000	      0.31706273	     -1.42613605	      0.06274355	      0.58881719	     -1.89676095	      0.06666503	      0.52090236	     -3.46750719	      0.06666503	      0.36237099	     -3.46750719	      0.05490061	      0.29442445	     -2.90817663	      0.05097914	      0.18116964	     -2.20908474	      0.04705767	      2.26474736	    -16.13273622	      0.34896082	      0.00000000	      0.00000000	     28.45547683	    -10.08970876	    -23.01219448	     -7.91130574	    -21.08264381	     21.40314330	    104.78706181	     89.26765162	     16.01442722	     26.71960882	     53.99918222	    -19.81761445	    147.82307090	      0.20808115	      0.83387627	    -13.80442754	    -24.37613205
